<svg xml:space="preserve" xmlns="http://www.w3.org/2000/svg" viewBox="0 0 32 32">
<path fill="currentColor" d="M7.106.26A2.536 2.536 0 0 0 4.57 2.795a2.536 2.536 0 0 0 1.42 2.273l-.097.108a4.638 4.638 0 0 0-1.143-.147A4.638 4.638 0 0 0 1.46 6.4a6.564 6.564 0 0 1 .609-.028 6.564 6.564 0 0 1 2.482.504C2.7 9.512 1.348 12.747.375 16.137-2.002 24.42 7.361 31.74 15.98 31.74c8.617 0 18.14-7.367 15.605-15.603-1.036-3.366-2.364-6.538-4.137-9.133a6.564 6.564 0 0 1 2.79-.633 6.564 6.564 0 0 1 .609.027 4.638 4.638 0 0 0-3.291-1.369 4.638 4.638 0 0 0-1.442.239 17.022 17.022 0 0 0-.248-.28 2.536 2.536 0 0 0 1.276-2.193A2.536 2.536 0 0 0 24.603.26a2.536 2.536 0 0 0-2.42 1.787C20.402 1.081 18.35.533 15.98.533c-2.449 0-4.574.595-6.416 1.633A2.536 2.536 0 0 0 7.106.26Zm-1.07 7.465a6.564 6.564 0 0 1 2.45 3.931 2.343 2.343 0 0 1-1.455.51 2.343 2.343 0 0 1-2.343-2.344 2.343 2.343 0 0 1 1.347-2.097Zm20.226.005a2.343 2.343 0 0 1 1.34 2.092 2.343 2.343 0 0 1-2.344 2.344 2.343 2.343 0 0 1-1.436-.537 6.564 6.564 0 0 1 2.44-3.898zM16 9.455c3.183 0 6.803 1.85 6.537 4.023l-.79 12.348c-.266 2.172-2.564 3.951-5.747 3.951s-5.486-1.778-5.746-3.951l-.791-12.492c-.26-2.173 3.354-3.879 6.537-3.879Zm6.922.324a4.638 4.638 0 0 0 .008.125 2.343 2.343 0 0 1-.016-.082 2.343 2.343 0 0 1 .008-.043zm-10.604 2.057c-.912 0-1.65.74-1.65 1.652a1.65 1.65 0 1 0 3.303 0c0-.912-.74-1.652-1.653-1.652zm7.327 0c-.913 0-1.65.74-1.65 1.652a1.65 1.65 0 1 0 3.302 0c0-.912-.74-1.652-1.652-1.652zm-3.653 2.476a13.84 16.475 0 0 0-1.15 6.524 13.84 16.475 0 0 0 1.142 6.498 13.84 16.475 0 0 0 1.143-6.498 13.84 16.475 0 0 0-1.135-6.524z"/>
</svg>