<svg
                  class="iconImg"
                  xmlns="http://www.w3.org/2000/svg"
                  viewBox="0 0 24 24">
                  <path
                    fill="currentColor"
                    d="M13.379 0v4.015H8.864V0Zm.518 7.198v13.009h4.552q1.369 0 1.943.536.592.518.592 1.37 0 .832-.592 1.369-.574.518-1.943.518H5.55q-1.369 0-1.961-.518-.574-.537-.574-1.388 0-.833.574-1.35.592-.537 1.961-.537h4.552v-9.215H7.05q-1.35 0-1.943-.519-.592-.536-.592-1.387 0-.833.574-1.351.592-.537 1.961-.537z" />
                </svg>